<svg width="25" height="13" viewBox="0 0 25 13" fill="none" xmlns="http://www.w3.org/2000/svg">
<path d="M4.82859 6.50001C4.82859 6.12084 4.97484 5.74168 5.26192 5.45459L8.79359 1.92293C8.95067 1.76584 9.21067 1.76584 9.36775 1.92293C9.52484 2.08001 9.52484 2.34001 9.36775 2.49709L5.83609 6.02876C5.57609 6.28876 5.57609 6.71126 5.83609 6.97126L9.36775 10.5029C9.52484 10.66 9.52484 10.92 9.36775 11.0771C9.21067 11.2342 8.95067 11.2342 8.79359 11.0771L5.26192 7.54543C4.97484 7.25834 4.82859 6.87918 4.82859 6.50001Z" fill="#9A4242"/>
<path d="M10.1143 6.50001C10.1143 6.12084 10.2605 5.74168 10.5476 5.45459L14.0793 1.92293C14.2364 1.76584 14.4964 1.76584 14.6535 1.92293C14.8105 2.08001 14.8105 2.34001 14.6535 2.49709L11.1218 6.02876C10.8618 6.28876 10.8618 6.71126 11.1218 6.97126L14.6535 10.5029C14.8105 10.66 14.8105 10.92 14.6535 11.0771C14.4964 11.2342 14.2364 11.2342 14.0793 11.0771L10.5476 7.54543C10.2605 7.25834 10.1143 6.87918 10.1143 6.50001Z" fill="#BD8484"/>
<path d="M15.4 6.50001C15.4 6.12084 15.5463 5.74168 15.8333 5.45459L19.365 1.92293C19.5221 1.76584 19.7821 1.76584 19.9392 1.92293C20.0963 2.08001 20.0963 2.34001 19.9392 2.49709L16.4075 6.02876C16.1475 6.28876 16.1475 6.71126 16.4075 6.97126L19.9392 10.5029C20.0963 10.66 20.0963 10.92 19.9392 11.0771C19.7821 11.2342 19.5221 11.2342 19.365 11.0771L15.8333 7.54543C15.5463 7.25834 15.4 6.87918 15.4 6.50001Z" fill="#DAB9B9"/>
</svg>
