<svg width="44" height="32" viewBox="0 0 44 32" fill="none" xmlns="http://www.w3.org/2000/svg">
<path d="M2.82317 2.46616C1.09497 4.10795 0.560532 6.51094 0.50098 8.8123C0.474499 11.0119 0.877964 13.1269 1.66092 15.1782C2.15612 16.4988 2.90024 17.7022 3.76749 18.8102C5.437 20.9944 7.60376 22.7186 10.0872 23.8951C12.2259 24.93 14.6286 25.2933 16.988 25.2843C20.7819 25.2785 24.6039 24.162 27.253 21.3163C29.9532 18.2286 30.8854 14.1872 31.8225 10.3086C32.2035 8.24682 32.7865 5.81059 35.2388 5.86199C35.8537 5.85817 36.4687 5.86126 37.0836 5.85822C38.6974 5.8506 40.3127 5.83267 41.9265 5.84677C43.4582 5.82765 44.3294 4.23811 43.1386 3.04729C42.3667 2.37958 40.696 2.67014 37.3545 2.52486C35.2624 2.52177 32.4508 2.02955 30.7171 3.41049C29.4065 4.44946 29.1958 6.26756 28.9056 7.80069C28.4691 10.0927 27.9488 12.3382 26.9398 14.4518C22.2339 24.622 6.37943 20.5131 6.21456 9.37693C6.20037 7.56063 6.97125 5.84234 8.9976 5.88026C10.7683 6.09057 12.2742 7.11734 13.4224 8.44481C13.8571 9.00645 14.2165 9.62474 14.5699 10.2395C15.0963 11.0515 16.186 10.5771 16.0954 9.68367C16.0536 9.31885 15.9742 8.97757 15.8667 8.62698C15.8479 8.56548 15.8291 8.50398 15.8097 8.44062C14.9003 5.58119 13.1273 3.08916 10.4322 1.68982C7.90174 0.473229 4.98521 0.579116 2.82317 2.46616Z" fill="#FF6A29"/>
<path d="M20.9388 28.6755C20.9388 30.0194 22.0283 31.1089 23.3722 31.1089C24.7162 31.1089 25.8057 30.0194 25.8057 28.6755C25.8057 27.3315 24.7162 26.242 23.3722 26.242C22.0283 26.242 20.9388 27.3315 20.9388 28.6755Z" fill="#FF6A29"/>
<path d="M8.73466 28.6755C8.73466 30.0194 9.82415 31.1089 11.1681 31.1089C12.5121 31.1089 13.6016 30.0194 13.6016 28.6755C13.6016 27.3315 12.5121 26.242 11.1681 26.242C9.82415 26.242 8.73466 27.3315 8.73466 28.6755Z" fill="#FF6A29"/>
</svg>
