<svg width="55" height="38" viewBox="0 0 55 38" fill="none" xmlns="http://www.w3.org/2000/svg">
<path d="M3.60401 1.98148C1.43078 4.04605 0.75872 7.06783 0.683834 9.96182C0.650536 12.7278 1.1579 15.3874 2.14247 17.9671C2.76519 19.6276 3.70094 21.1409 4.79151 22.5344C6.89095 25.281 9.61567 27.4492 12.7386 28.9286C15.4281 30.2301 18.4494 30.6868 21.4165 30.6756C26.1873 30.6682 30.9936 29.2642 34.3249 25.6858C37.7203 21.8029 38.8926 16.7208 40.071 11.8434C40.5501 9.25072 41.2833 6.18713 44.3671 6.25177C45.1403 6.24697 45.9136 6.25085 46.6869 6.24704C48.7163 6.23745 50.7476 6.2149 52.7769 6.23263C54.7031 6.20859 55.7986 4.20972 54.3011 2.71225C53.3305 1.8726 51.2296 2.23798 47.0276 2.05529C44.3967 2.0514 40.8611 1.43244 38.6809 3.16898C37.0328 4.4755 36.7679 6.76178 36.403 8.68971C35.8541 11.5719 35.1998 14.3957 33.9309 17.0536C28.0132 29.8427 8.07605 24.6757 7.86874 10.6719C7.85089 8.38784 8.82028 6.22706 11.3684 6.27475C13.5952 6.53922 15.4888 7.83038 16.9327 9.4997C17.4793 10.206 17.9313 10.9835 18.3757 11.7566C19.0377 12.7776 20.4079 12.1811 20.294 11.0576C20.2415 10.5988 20.1415 10.1697 20.0064 9.72878C19.9827 9.65144 19.9591 9.57411 19.9347 9.49443C18.7912 5.89867 16.5616 2.76491 13.1725 1.00522C9.99038 -0.52466 6.32281 -0.391505 3.60401 1.98148Z" fill="#FF6A29"/>
<path d="M26.3846 34.94C26.3846 36.63 27.7546 38.0001 29.4447 38.0001C31.1347 38.0001 32.5048 36.63 32.5048 34.94C32.5048 33.2499 31.1347 31.8799 29.4447 31.8799C27.7546 31.8799 26.3846 33.2499 26.3846 34.94Z" fill="#FF6A29"/>
<path d="M11.0378 34.94C11.0378 36.63 12.4078 38.0001 14.0979 38.0001C15.7879 38.0001 17.158 36.63 17.158 34.94C17.158 33.2499 15.7879 31.8799 14.0979 31.8799C12.4078 31.8799 11.0378 33.2499 11.0378 34.94Z" fill="#FF6A29"/>
</svg>
