<svg width="60" height="32" viewBox="0 0 60 32" fill="none" xmlns="http://www.w3.org/2000/svg">
<path d="M41.4291 10.9674C41.8938 11.1998 42.2266 11.6703 42.6323 11.992C44.4559 13.4692 43.6477 15.9984 41.3601 16.107C41.0682 16.1143 40.7769 16.1108 40.485 16.1041C39.918 16.0926 39.3288 16.1973 38.8813 15.7838C38.629 15.4864 38.7495 15.0017 38.9899 14.7337C39.3548 14.531 39.7923 14.581 40.1947 14.5848C40.3123 14.5863 40.4299 14.5879 40.5475 14.5899C41.1929 14.6188 42.1149 14.6519 42.1291 13.8259C41.9788 13.3748 41.5796 13.0922 41.2213 12.805C40.8071 12.4687 40.4647 12.1593 40.379 11.6091C40.4129 11.3507 40.4525 11.2419 40.6416 11.0622C40.9211 10.8805 41.1072 10.899 41.4291 10.9674Z" fill="#BA400B"/>
<path d="M38.5364 12.7758C38.5536 13.3135 38.5642 13.8514 38.5747 14.3893C38.5953 15.6039 38.5984 16.7652 37.7539 17.7357C37.0824 18.36 35.4059 19.4615 34.8371 18.2024C34.7975 17.9471 34.8165 17.8337 34.9355 17.6045C35.148 17.3518 35.3973 17.25 35.7012 17.1341C36.2384 16.912 36.6134 16.6306 36.8788 16.1023C37.0139 15.7322 37.0127 15.3813 37.0135 14.99C37.0195 14.4261 37.0216 13.8622 37.0281 13.2983C37.0281 12.9357 37.015 12.5653 37.2288 12.2521C37.7552 11.787 38.5149 12.0355 38.5364 12.7758Z" fill="#BA400B"/>
<path d="M47.7794 14.7653V16.1861H47.5102C46.9553 16.1861 46.5276 16.086 46.2271 15.8857C45.9267 15.6812 45.7118 15.4079 45.5825 15.0658C45.4531 14.7236 45.3759 14.3376 45.3509 13.9078C45.33 13.4781 45.3237 13.0316 45.3321 12.5684C45.3321 12.535 45.3321 12.5017 45.3321 12.4683L45.3571 9.85201C45.378 9.54323 45.4948 9.32417 45.7076 9.19482C45.9246 9.06546 46.1374 9.06129 46.346 9.1823C46.5589 9.30331 46.6715 9.58705 46.684 10.0335L46.634 13.7389C46.6548 14.1394 46.7633 14.4127 46.9594 14.5588C47.1597 14.7048 47.3996 14.7737 47.6792 14.7653H47.7794ZM47.7543 14.7653C47.8712 14.7653 47.9859 14.7966 48.0986 14.8592C48.2154 14.9176 48.3051 15.0053 48.3677 15.1221C48.4303 15.2348 48.4616 15.3516 48.4616 15.4726C48.4616 15.5978 48.4303 15.7167 48.3677 15.8294C48.3093 15.942 48.2217 16.0296 48.1048 16.0922C47.9922 16.1548 47.8753 16.1861 47.7543 16.1861C47.6291 16.1861 47.5102 16.1548 47.3976 16.0922C47.2849 16.0296 47.1973 15.942 47.1347 15.8294C47.0721 15.7167 47.0408 15.5978 47.0408 15.4726C47.0408 15.3516 47.0721 15.2348 47.1347 15.1221C47.2014 15.0053 47.2912 14.9176 47.4038 14.8592C47.5165 14.7966 47.6333 14.7653 47.7543 14.7653ZM51.0888 14.7716C51.118 14.7674 51.1493 14.7653 51.1826 14.7653C51.3037 14.7653 51.4205 14.7966 51.5332 14.8592C51.6458 14.9176 51.7334 15.0053 51.796 15.1221C51.8628 15.2348 51.8962 15.3516 51.8962 15.4726C51.8962 15.5978 51.8649 15.7167 51.8023 15.8294C51.7397 15.942 51.6521 16.0296 51.5394 16.0922C51.4267 16.1548 51.3078 16.1861 51.1826 16.1861H47.8278V16.1799C47.7986 16.184 47.7694 16.1861 47.7402 16.1861C47.6192 16.1861 47.5024 16.1548 47.3897 16.0922C47.277 16.0296 47.1894 15.942 47.1268 15.8294C47.0642 15.7167 47.0329 15.5978 47.0329 15.4726C47.0329 15.3516 47.0642 15.2348 47.1268 15.1221C47.1894 15.0053 47.277 14.9176 47.3897 14.8592C47.5024 14.7966 47.6192 14.7653 47.7402 14.7653C47.7736 14.7653 47.8049 14.7674 47.8341 14.7716H51.0888ZM54.4768 14.7716C54.506 14.7674 54.5373 14.7653 54.5707 14.7653C54.6917 14.7653 54.8085 14.7966 54.9212 14.8592C55.0339 14.9176 55.1215 15.0053 55.1841 15.1221C55.2508 15.2348 55.2842 15.3516 55.2842 15.4726C55.2842 15.5978 55.2529 15.7167 55.1903 15.8294C55.1278 15.942 55.0401 16.0296 54.9275 16.0922C54.8148 16.1548 54.6959 16.1861 54.5707 16.1861H51.2159V16.1799C51.1867 16.184 51.1575 16.1861 51.1282 16.1861C51.0072 16.1861 50.8904 16.1548 50.7777 16.0922C50.6651 16.0296 50.5775 15.942 50.5149 15.8294C50.4523 15.7167 50.421 15.5978 50.421 15.4726C50.421 15.3516 50.4523 15.2348 50.5149 15.1221C50.5775 15.0053 50.6651 14.9176 50.7777 14.8592C50.8904 14.7966 51.0072 14.7653 51.1282 14.7653C51.1616 14.7653 51.1929 14.7674 51.2221 14.7716H54.4768ZM57.6896 13.6763C57.4142 13.6387 57.1805 13.6721 56.9886 13.7764C56.8008 13.8807 56.6798 13.9976 56.6256 14.1269C56.5713 14.2688 56.5776 14.4357 56.6444 14.6276C56.7153 14.8154 56.83 14.9761 56.9886 15.1096C57.1847 15.264 57.4038 15.3412 57.6458 15.3412C57.892 15.337 58.1027 15.241 58.278 15.0532C58.4699 14.8279 58.5304 14.5671 58.4595 14.2709C58.3927 13.9746 58.1361 13.7764 57.6896 13.6763ZM54.5601 14.7653H54.6603C54.8647 14.7528 55.0149 14.6756 55.1109 14.5337C55.211 14.3919 55.2945 14.2166 55.3613 14.008C55.3988 13.912 55.4385 13.816 55.4802 13.7201C55.5428 13.524 55.6325 13.3404 55.7493 13.1693C55.9496 12.8772 56.2062 12.6456 56.5192 12.4745C56.8321 12.3035 57.1826 12.2158 57.5707 12.2117C58.0923 12.22 58.5221 12.3431 58.86 12.5809C59.2022 12.8188 59.4505 13.1213 59.6049 13.4885C59.7634 13.8557 59.8281 14.2396 59.7989 14.6402C59.7238 15.3453 59.4526 15.8607 58.9852 16.1861C58.5221 16.5158 58.0005 16.6618 57.4205 16.6243C56.8446 16.5867 56.3502 16.3739 55.9371 15.9858C55.8286 15.8732 55.7347 15.7522 55.6554 15.6228C55.4426 15.8398 55.1944 15.9984 54.9106 16.0985C54.798 16.1569 54.6811 16.1861 54.5601 16.1861C54.4391 16.1861 54.3223 16.1548 54.2096 16.0922C54.0969 16.0296 54.0093 15.942 53.9467 15.8294C53.8841 15.7167 53.8528 15.5978 53.8528 15.4726C53.8528 15.3516 53.8841 15.2348 53.9467 15.1221C54.0093 15.0053 54.0969 14.9176 54.2096 14.8592C54.3223 14.7966 54.4391 14.7653 54.5601 14.7653Z" fill="#BA400B"/>
<circle cx="37.8693" cy="23.5916" r="0.762804" fill="#BA400B"/>
<circle cx="40.1583" cy="23.5916" r="0.762804" fill="#BA400B"/>
<path d="M48.9765 19.9577C49.1397 20.1663 49.1661 20.2691 49.1661 20.5338C49.0865 21.034 48.8479 21.431 48.4517 21.7466C48.2146 21.9089 47.9686 22.0463 47.7077 22.1672C47.1504 22.4293 47.1017 22.4007 46.769 22.4293C46.5147 22.4293 46.3876 22.5565 46.3876 22.6836C46.3876 22.8107 46.3876 23.065 46.8582 23.0933C47.4485 23.1511 47.9754 23.2498 48.4201 23.6725C48.8938 24.2539 48.9849 24.8824 48.9328 25.609C48.8263 26.2042 48.5243 26.6147 48.055 26.9872C46.7928 27.8354 44.1538 27.6797 42.9242 26.7174C40.746 27.9401 35.3965 28.1944 34.8337 24.971C34.7934 24.5763 34.8199 24.1795 35.067 23.859C35.3562 23.6438 35.5606 23.5978 35.915 23.6491C36.1202 23.7061 36.2099 23.8051 36.3322 23.9756C36.4582 24.294 36.4861 24.6294 36.527 24.968C36.6142 25.3627 36.8053 25.5127 37.127 25.6965C38.237 26.1898 41.8317 26.3861 41.8996 24.6538C41.943 23.9922 42.2451 23.4814 42.9846 23.6532C43.4468 23.8328 43.51 24.1809 43.5258 24.6319C43.5445 24.9794 43.5746 25.2192 43.7992 25.4924C44.4915 26.0492 47.5523 26.4426 47.3577 24.9673C47.2344 24.7632 47.1758 24.6928 46.9493 24.6173C46.8218 24.6084 46.6942 24.6013 46.5665 24.5954C45.9873 24.5555 45.5061 24.4529 45.0826 24.034C44.686 23.5501 44.5646 23.0782 44.6159 22.4589C44.7632 21.4023 45.7107 20.9612 46.6382 20.7938C47.2585 20.6793 47.6035 20.4953 48.0067 20.0067C48.2914 19.7083 48.6592 19.7125 48.9765 19.9577Z" fill="#BA400B"/>
<path d="M53.1329 19.794C53.4505 19.9646 53.613 20.1463 53.6181 20.5007C53.6291 21.0768 53.6341 21.653 53.643 22.2291C53.6553 23.0645 53.6665 23.8998 53.6506 24.7351C53.6408 25.559 53.8548 26.186 54.8246 25.9193C55.1173 25.7729 55.2237 25.6332 55.3496 25.336C55.3825 25.1447 55.3825 25.1447 55.397 24.9458C55.4764 24.3385 55.7244 23.8937 56.2016 23.5075C57.1895 22.8242 58.7921 22.9799 59.4746 24.0097C60.5446 26.2794 58.3205 28.3726 56.2356 27.0678C56.1742 27.0353 56.1129 27.0028 56.0497 26.9694C55.9348 27.0112 55.9348 27.0112 55.8163 27.086C55.0656 27.4549 54.3848 27.6299 53.5558 27.3996C53.0406 27.2235 52.6395 26.9282 52.3745 26.4443C52.1776 26.0023 52.1646 25.5243 52.1529 25.049C52.1188 23.6048 52.1569 22.1593 52.1561 20.7149C52.1684 20.0592 52.3989 19.6914 53.1329 19.794ZM57.0997 24.6359C56.7852 25.0418 56.8142 25.6593 57.2164 25.9777C58.0444 26.2808 58.4479 25.4624 58.1497 24.7526C58.0192 24.5688 57.9413 24.5263 57.7232 24.4646C57.4639 24.4602 57.3223 24.5032 57.0997 24.6359Z" fill="#BA400B"/>
<path d="M51.2741 23.7828C51.3263 23.9427 51.3395 24.0669 51.3404 24.2346C51.3435 24.5587 51.3434 24.8828 51.3428 25.2069C51.3426 25.4144 51.344 25.6219 51.3454 25.8294C51.3484 26.8749 51.3204 27.6128 50.8328 28.5263C50.3934 29.2857 49.6621 29.7453 48.8408 30.0137C48.4752 30.1025 48.1366 30.1309 47.795 29.9601C47.5883 29.7741 47.4939 29.6715 47.4232 29.3986C47.4145 29.149 47.4497 29.0421 47.5909 28.8372C47.8054 28.6501 48.009 28.5786 48.28 28.4944C48.8125 28.3253 49.2587 28.0508 49.5248 27.5419C49.6785 27.2117 49.7555 26.9181 49.7594 26.5521C49.7657 26.0867 49.772 25.6212 49.7771 25.1557C49.7814 24.7787 49.7874 24.4017 49.7918 24.0247C49.8756 23.2523 50.9239 23.058 51.2741 23.7828Z" fill="#BA400B"/>
<path d="M2.32317 2.46616C0.594967 4.10795 0.0605316 6.51094 0.000980377 8.8123C-0.0255013 11.0119 0.377964 13.1269 1.16092 15.1782C1.65612 16.4988 2.40024 17.7022 3.26749 18.8102C4.937 20.9944 7.10376 22.7186 9.5872 23.8951C11.7259 24.93 14.1286 25.2933 16.488 25.2843C20.2819 25.2785 24.1039 24.162 26.753 21.3163C29.4532 18.2286 30.3854 14.1872 31.3225 10.3086C31.7035 8.24682 32.2865 5.81059 34.7388 5.86199C35.3537 5.85817 35.9687 5.86126 36.5836 5.85822C38.1974 5.8506 39.8127 5.83267 41.4265 5.84677C42.9582 5.82765 43.8294 4.23811 42.6386 3.04729C41.8667 2.37958 40.196 2.67014 36.8545 2.52486C34.7624 2.52177 31.9508 2.02955 30.2171 3.41049C28.9065 4.44946 28.6958 6.26756 28.4056 7.80069C27.9691 10.0927 27.4488 12.3382 26.4398 14.4518C21.7339 24.622 5.87943 20.5131 5.71456 9.37693C5.70037 7.56063 6.47125 5.84234 8.4976 5.88026C10.2683 6.09057 11.7742 7.11734 12.9224 8.44481C13.3571 9.00645 13.7165 9.62474 14.0699 10.2395C14.5963 11.0515 15.686 10.5771 15.5954 9.68367C15.5536 9.31885 15.4742 8.97757 15.3667 8.62698C15.3479 8.56548 15.3291 8.50398 15.3097 8.44062C14.4003 5.58119 12.6273 3.08916 9.93225 1.68982C7.40174 0.473229 4.48521 0.579116 2.32317 2.46616Z" fill="#FF6A29"/>
<path d="M20.4388 28.6755C20.4388 30.0194 21.5283 31.1089 22.8722 31.1089C24.2162 31.1089 25.3057 30.0194 25.3057 28.6755C25.3057 27.3315 24.2162 26.242 22.8722 26.242C21.5283 26.242 20.4388 27.3315 20.4388 28.6755Z" fill="#FF6A29"/>
<path d="M8.23466 28.6755C8.23466 30.0194 9.32415 31.1089 10.6681 31.1089C12.0121 31.1089 13.1016 30.0194 13.1016 28.6755C13.1016 27.3315 12.0121 26.242 10.6681 26.242C9.32415 26.242 8.23466 27.3315 8.23466 28.6755Z" fill="#FF6A29"/>
</svg>
